<svg width="110" height="40" viewBox="0 0 110 40" fill="none" xmlns="http://www.w3.org/2000/svg">
<g clip-path="url(#clip0_13_12980)">
<path d="M11.3154 13.1346C10.4408 13.6711 9.43348 13.95 8.40849 13.9393C7.68274 13.9539 6.96163 13.8199 6.28924 13.5453C5.61685 13.2708 5.00729 12.8616 4.49783 12.3426C3.9791 11.8275 3.57048 11.2117 3.29696 10.5327C3.02344 9.85371 2.8908 9.12587 2.90709 8.39368C2.89058 7.66122 3.02313 6.93309 3.29665 6.25383C3.57018 5.57457 3.9789 4.95848 4.49783 4.44323C5.00729 3.92423 5.61685 3.51499 6.28924 3.24047C6.96163 2.96594 7.68274 2.83196 8.40849 2.84664C9.46913 2.83314 10.5108 3.12918 11.407 3.6988C12.2578 4.23676 12.9361 5.00939 13.3607 5.92427H16.4602C15.959 4.22314 14.9198 2.73198 13.4996 1.67605C12.034 0.566349 10.2426 -0.0231604 8.40691 0.000178994C6.06651 0.000178994 4.05752 0.815904 2.43834 2.42682C0.819165 4.03773 -0.00146484 6.04304 -0.00146484 8.39368C-0.00146484 10.7443 0.819165 12.7497 2.43834 14.359C4.05752 15.9683 6.06809 16.7857 8.40691 16.7857C10.2223 16.8115 11.9962 16.2395 13.457 15.1573C14.8628 14.1288 15.9 12.6722 16.4144 11.0042H13.2928C12.8411 11.8831 12.1569 12.6201 11.3154 13.1346Z" fill="white"/>
<path d="M27.761 6.49596C27.2095 5.92801 26.5486 5.47882 25.8184 5.17571C25.0883 4.87261 24.3043 4.72197 23.5143 4.733C22.724 4.72184 21.9396 4.87245 21.2092 5.17556C20.4788 5.47866 19.8176 5.92789 19.2659 6.49596C18.7032 7.05205 18.2564 7.71487 17.9513 8.44585C17.653 9.18035 17.5028 9.96697 17.5094 10.7601C17.4983 11.5531 17.6483 12.34 17.9503 13.0729C18.2523 13.8058 18.6999 14.4691 19.2659 15.0226C19.8172 15.5911 20.4784 16.0407 21.2089 16.3438C21.9394 16.647 22.7239 16.7973 23.5143 16.7856C24.3044 16.7971 25.0885 16.6466 25.8187 16.3435C26.5489 16.0404 27.2098 15.5909 27.761 15.0226C28.3272 14.4693 28.7751 13.806 29.0771 13.0731C29.3791 12.3401 29.529 11.5532 29.5175 10.7601C29.529 9.96683 29.3792 9.17949 29.0771 8.44632C28.7751 7.71314 28.3273 7.04948 27.761 6.49596ZM25.7394 13.0267C25.4564 13.3249 25.1143 13.5601 24.7351 13.7172C24.3559 13.8744 23.948 13.95 23.5379 13.9391C23.1244 13.9485 22.7133 13.8725 22.3303 13.7159C21.9472 13.5592 21.6004 13.3252 21.3112 13.0284C21.0177 12.7301 20.7872 12.3754 20.6335 11.9857C20.4797 11.596 20.4059 11.1792 20.4163 10.7601C20.4057 10.341 20.4795 9.92407 20.6332 9.5343C20.787 9.14454 21.0176 8.78996 21.3112 8.49179C21.6001 8.19445 21.9469 7.96002 22.33 7.80305C22.7131 7.64609 23.1242 7.56998 23.5379 7.57946C23.948 7.56858 24.3559 7.64412 24.7351 7.80128C25.1143 7.95843 25.4564 8.19367 25.7394 8.49179C26.0262 8.79369 26.2509 9.14946 26.4004 9.53871C26.5499 9.92796 26.6213 10.3431 26.6105 10.7601C26.6216 11.1769 26.5503 11.5918 26.4008 11.9808C26.2513 12.3699 26.0265 12.7253 25.7394 13.0267Z" fill="white"/>
<path d="M47.5322 6.17752C46.5774 5.21921 45.3023 4.73291 43.7446 4.73291C42.1112 4.73291 40.8629 5.27148 40.0344 6.33592L39.9713 6.41512L39.9097 6.33592C39.0796 5.27148 37.8313 4.73291 36.1995 4.73291C34.6403 4.73291 33.3667 5.21921 32.4119 6.17752C31.4572 7.13583 30.9727 8.57409 30.9727 10.4543V16.6001H33.8796V10.4543C33.8796 8.5535 34.6608 7.58254 36.1995 7.58254C37.7382 7.58254 38.5178 8.54875 38.5178 10.4543V16.6001H41.4247V10.4543C41.4247 8.5535 42.2138 7.58254 43.7446 7.58254C45.2754 7.58254 46.0629 8.54875 46.0629 10.4543V16.6001H48.9699V10.4543C48.9699 8.57409 48.487 7.13583 47.5322 6.17752Z" fill="white"/>
<path d="M60.7712 6.49607C60.2198 5.92813 59.5588 5.47893 58.8287 5.17582C58.0985 4.87272 57.3146 4.72208 56.5245 4.73311C55.7359 4.72089 54.9532 4.87106 54.2247 5.17428C53.4962 5.4775 52.8372 5.92732 52.2887 6.49607C51.7265 7.05189 51.2825 7.71633 50.9833 8.44921C50.6842 9.1821 50.5361 9.9683 50.548 10.7602V21.3302H53.4786V15.8115L53.6033 15.9018C54.4599 16.5017 55.485 16.8114 56.5292 16.7857C57.3193 16.7972 58.1035 16.6468 58.8337 16.3436C59.5639 16.0405 60.2248 15.591 60.776 15.0227C61.3422 14.4694 61.7901 13.8061 62.0921 13.0732C62.3941 12.3403 62.5439 11.5533 62.5325 10.7602C62.5433 9.9666 62.3928 9.17908 62.0899 8.44589C61.7871 7.7127 61.3384 7.04919 60.7712 6.49607ZM58.7544 13.0268C58.4704 13.3258 58.1269 13.5616 57.7463 13.7188C57.3657 13.8759 56.9564 13.9511 56.545 13.9393C56.1317 13.9485 55.721 13.8725 55.3382 13.7158C54.9554 13.5591 54.6088 13.3252 54.3198 13.0285C54.0264 12.7302 53.7959 12.3755 53.6421 11.9858C53.4884 11.5961 53.4145 11.1793 53.425 10.7602C53.4144 10.3412 53.4882 9.92418 53.6419 9.53441C53.7957 9.14465 54.0262 8.79008 54.3198 8.49191C54.6084 8.19469 54.955 7.96029 55.3378 7.80332C55.7206 7.64636 56.1316 7.57022 56.545 7.57957C56.9564 7.56777 57.3657 7.6429 57.7463 7.80007C58.1269 7.95725 58.4704 8.19294 58.7544 8.49191C59.0412 8.7938 59.2658 9.14957 59.4153 9.53882C59.5648 9.92808 59.6363 10.3432 59.6255 10.7602C59.6366 11.1771 59.5653 11.5919 59.4158 11.9809C59.2663 12.37 59.0415 12.7254 58.7544 13.0268Z" fill="white"/>
<path d="M75.8506 10.5016C75.789 8.74974 75.1436 7.33369 73.9331 6.29935C72.7842 5.28485 71.305 4.72757 69.7747 4.73277C68.9891 4.71922 68.2095 4.87127 67.4862 5.17903C66.7628 5.4868 66.1118 5.94349 65.5753 6.51954C65.0233 7.08142 64.5879 7.74755 64.2943 8.47949C64.0006 9.21144 63.8545 9.99463 63.8645 10.7836C63.852 11.5739 64.0003 12.3585 64.3004 13.0892C64.6005 13.82 65.0462 14.4816 65.6099 15.0335C66.1641 15.601 66.8279 16.0491 67.5605 16.3503C68.2932 16.6515 69.0793 16.7996 69.8709 16.7854C71.0483 16.7938 72.2006 16.4436 73.1756 15.7811C74.1105 15.1598 74.8577 14.2931 75.336 13.2752L71.831 13.253C71.2461 13.7116 70.5215 13.9539 69.7794 13.9389C69.139 13.9581 68.5087 13.7754 67.9772 13.4162C67.4913 13.0773 67.1482 12.5692 67.0145 11.9906L66.9908 11.894H75.7717C75.8408 11.4333 75.8672 10.9672 75.8506 10.5016ZM66.9672 9.5845L67.0145 9.47366C67.5447 8.21756 68.5043 7.57288 69.8694 7.57288C70.4773 7.57234 71.0714 7.75436 71.5754 8.09556C72.085 8.42881 72.4847 8.90617 72.7242 9.46732L72.7716 9.57823L66.9672 9.5845Z" fill="white"/>
<path d="M83.2775 7.76934V4.91817H81.1548V0.208984H78.2479V4.91817H76.5024V7.76934H78.2479V11.0957C78.2479 12.9743 78.7118 14.3888 79.6271 15.2996C80.5425 16.2104 81.7545 16.6571 83.2775 16.6714V13.8202C82.542 13.8059 82.0007 13.589 81.6677 13.1755C81.3347 12.7621 81.1548 12.0509 81.1548 11.091V7.76463L83.2775 7.76934Z" fill="white"/>
<path d="M96.2449 10.5016C96.1834 8.74974 95.5379 7.33369 94.3275 6.29935C93.1794 5.28457 91.7005 4.72723 90.1706 4.73277C89.3851 4.71922 88.6054 4.87127 87.8821 5.17903C87.1587 5.4868 86.5077 5.94349 85.9712 6.51954C85.4192 7.08142 84.9838 7.74755 84.6902 8.47949C84.3965 9.21144 84.2505 9.99463 84.2605 10.7836C84.2479 11.5739 84.3963 12.3585 84.6964 13.0892C84.9965 13.82 85.4422 14.4816 86.0059 15.0335C86.5601 15.601 87.2238 16.0491 87.9564 16.3503C88.6891 16.6515 89.4753 16.7996 90.2669 16.7854C91.4438 16.7938 92.5955 16.4436 93.5699 15.7811C94.5053 15.1599 95.2531 14.2932 95.732 13.2752L92.227 13.253C91.642 13.7116 90.9175 13.9539 90.1754 13.9389C89.535 13.9581 88.9047 13.7754 88.3732 13.4162C87.8868 13.0777 87.5436 12.5694 87.4105 11.9906L87.3868 11.894H96.1566C96.2297 11.4337 96.2593 10.9675 96.2449 10.5016ZM87.3631 9.5845L87.4105 9.47366C87.9392 8.21756 88.9002 7.57288 90.2653 7.57288C90.8727 7.57218 91.4665 7.75422 91.9698 8.09556C92.4803 8.42821 92.8807 8.9057 93.1202 9.46732L93.1659 9.57823L87.3631 9.5845Z" fill="white"/>
<path d="M104.581 8.17972L104.607 8.13694L109.67 0.188477H106.414L102.977 5.50906L99.5622 0.188477H96.3143L101.404 8.17972L101.377 8.22249L95.9624 16.597H99.2166L102.985 10.7806L106.752 16.597H110.008L104.581 8.17972Z" fill="white"/>
<path d="M91.1014 17.9346L18.2354 20.4885C17.0159 20.5313 16.0619 21.5582 16.1045 22.7821L16.6112 37.3459C16.6537 38.5699 17.6768 39.5275 18.8963 39.4848L91.7623 36.9308C92.9818 36.8881 93.9358 35.8612 93.8932 34.6372L93.3865 20.0734C93.344 18.8494 92.3208 17.8918 91.1014 17.9346Z" fill="#2CA656"/>
<path d="M22.5705 28.2788C22.5773 28.3814 22.6137 28.4799 22.6754 28.562C22.737 28.6442 22.8212 28.7065 22.9176 28.7414C23.1773 28.863 23.45 28.9543 23.7304 29.0138C24.046 29.0888 24.3675 29.1764 24.6947 29.2768C25.016 29.3759 25.303 29.5636 25.5232 29.8185C25.7594 30.0999 25.8886 30.4563 25.8878 30.8243C25.9067 31.0882 25.8601 31.3527 25.7521 31.594C25.6442 31.8354 25.4782 32.046 25.2691 32.2071C24.7922 32.5667 24.2116 32.7602 23.6152 32.7584C23.0843 32.7924 22.5541 32.683 22.0796 32.4416C21.6602 32.2202 21.3236 31.8684 21.1201 31.4389L22.2123 30.7498C22.4416 31.3201 22.8956 31.593 23.5742 31.5687C24.2528 31.5445 24.5842 31.3085 24.5684 30.8607C24.5604 30.7593 24.5237 30.6621 24.4624 30.581C24.4012 30.4999 24.318 30.4381 24.2228 30.4029C23.9633 30.2779 23.6899 30.1844 23.4084 30.1242C23.0928 30.0498 22.7693 29.9657 22.4458 29.8628C22.1266 29.7642 21.8402 29.5802 21.6173 29.3306C21.3811 29.0591 21.2515 28.7105 21.2527 28.3501C21.2363 28.0936 21.2806 27.8369 21.3821 27.601C21.4836 27.365 21.6394 27.1565 21.8366 26.9927C22.2714 26.6307 22.8184 26.4324 23.3832 26.4319C23.8455 26.4073 24.3061 26.5057 24.7183 26.717C25.1062 26.9171 25.428 27.2257 25.6447 27.6056L24.5747 28.2582C24.3506 27.8084 23.9671 27.5929 23.4242 27.6119C23.2046 27.6115 22.9896 27.6753 22.8056 27.7957C22.7272 27.848 22.6641 27.9204 22.6228 28.0053C22.5815 28.0902 22.5634 28.1846 22.5705 28.2788Z" fill="white"/>
<path d="M30.2641 26.1895C30.6598 26.1729 31.0546 26.2404 31.4225 26.3875C31.7905 26.5347 32.1233 26.7581 32.3993 27.0432C32.6957 27.3315 32.932 27.6759 33.0945 28.0566C33.2571 28.4373 33.3426 28.8467 33.3462 29.2608C33.3721 29.6743 33.3157 30.0889 33.1802 30.4802C33.0447 30.8716 32.8329 31.2319 32.5571 31.5402C32.2992 31.8421 31.9808 32.0861 31.6227 32.2564C31.2646 32.4267 30.8749 32.5194 30.4787 32.5286C29.5687 32.5602 28.8579 32.2483 28.3466 31.5925L28.4603 34.8523L27.1646 34.8982L26.8711 26.4762L28.1667 26.4302L28.1967 27.2967C28.6639 26.5913 29.353 26.2222 30.2641 26.1895ZM28.8627 30.783C29.0453 30.9567 29.2616 31.0908 29.4981 31.1769C29.7346 31.263 29.9861 31.2993 30.2372 31.2836C30.4886 31.2816 30.7369 31.2277 30.9666 31.1253C31.1963 31.0228 31.4024 30.8739 31.5723 30.688C31.7442 30.5006 31.8764 30.2802 31.9608 30.0401C32.0451 29.7999 32.08 29.545 32.0632 29.2909C32.0622 29.0365 32.0096 28.785 31.9087 28.5516C31.8078 28.3182 31.6605 28.1079 31.4761 27.9335C31.2939 27.7596 31.0779 27.6254 30.8417 27.5392C30.6054 27.4531 30.354 27.4169 30.1031 27.4329C29.8517 27.4342 29.6032 27.4878 29.3734 27.5903C29.1436 27.6928 28.9375 27.842 28.768 28.0285C28.5961 28.2155 28.4637 28.4356 28.379 28.6755C28.2944 28.9154 28.2593 29.17 28.2756 29.4239C28.276 29.6791 28.3283 29.9317 28.4292 30.1659C28.5302 30.4001 28.6776 30.6112 28.8627 30.7862V30.783Z" fill="white"/>
<path d="M37.4714 32.2703C37.0559 32.2924 36.6403 32.2297 36.2497 32.0859C35.8591 31.9422 35.5016 31.7204 35.1988 31.434C34.8885 31.1537 34.6392 30.812 34.4667 30.4303C34.2943 30.0487 34.2023 29.6355 34.1967 29.2164C34.1732 28.7981 34.236 28.3794 34.3813 27.9866C34.5266 27.5938 34.7512 27.2355 35.041 26.9339C35.3234 26.6272 35.6647 26.381 36.0444 26.2104C36.4241 26.0397 36.8344 25.9479 37.2504 25.9407C37.6672 25.9176 38.0842 25.9799 38.4763 26.1237C38.8683 26.2674 39.2271 26.4897 39.5308 26.777C39.8395 27.0582 40.0872 27.4002 40.2582 27.7818C40.4293 28.1634 40.5202 28.5762 40.5251 28.9946C40.5489 29.4124 40.4868 29.8308 40.3426 30.2235C40.1984 30.6161 39.9753 30.9748 39.6871 31.2772C39.4043 31.585 39.0619 31.8318 38.681 32.0026C38.3001 32.1733 37.8885 32.2644 37.4714 32.2703ZM36.0778 30.5121C36.2571 30.6827 36.4694 30.8146 36.7015 30.8996C36.9336 30.9846 37.1805 31.0209 37.4271 31.0063C37.6741 31.0034 37.9179 30.9497 38.1435 30.8486C38.369 30.7476 38.5715 30.6012 38.7386 30.4187C38.91 30.2348 39.0421 30.0177 39.1268 29.7807C39.2115 29.5437 39.2469 29.2918 39.231 29.0406C39.2296 28.7886 39.1767 28.5395 39.0758 28.3087C38.9748 28.078 38.8278 27.8705 38.6439 27.699C38.4646 27.5272 38.252 27.3944 38.0193 27.3088C37.7866 27.2232 37.5388 27.1867 37.2914 27.2016C37.0445 27.2045 36.8007 27.2582 36.5752 27.3593C36.3496 27.4603 36.1471 27.6067 35.98 27.7892C35.8085 27.9733 35.6763 28.1907 35.5916 28.4279C35.5069 28.6652 35.4715 28.9174 35.4876 29.1689C35.4886 29.4219 35.5416 29.6721 35.6432 29.9037C35.7447 30.1353 35.8927 30.3435 36.0778 30.5153V30.5121Z" fill="white"/>
<path d="M42.9256 26.9153C43.2265 26.156 43.8288 25.7611 44.7326 25.7305L44.7815 27.1387C44.3202 27.1131 43.8652 27.2553 43.5 27.5394C43.1412 27.8213 42.973 28.2707 42.995 28.8874L43.0992 31.9191L41.8051 31.965L41.5952 25.9459L42.8909 25.9016L42.9256 26.9153Z" fill="white"/>
<path d="M49.2381 26.934L47.753 26.9863L47.8524 29.8739C47.8468 29.9701 47.8604 30.0664 47.8924 30.1573C47.9244 30.2481 47.9741 30.3316 48.0387 30.4029C48.182 30.5148 48.3608 30.571 48.5421 30.5613C48.8166 30.5642 49.091 30.5526 49.3643 30.5265L49.4038 31.6938C48.4179 31.8491 47.7041 31.7879 47.2622 31.5101C46.8204 31.2314 46.5852 30.7007 46.5584 29.9135L46.4574 27.0274L45.3527 27.0655L45.3101 25.8141L46.4148 25.7761L46.369 24.4756L47.6505 24.0464L47.7088 25.7301L49.1955 25.6779L49.2381 26.934Z" fill="white"/>
<path d="M54.5693 29.0597C54.6589 29.4808 54.9086 29.8502 55.2652 30.0893C55.6452 30.3274 56.0905 30.4383 56.5372 30.4061C57.2243 30.3818 57.7308 30.1152 58.057 29.6063L59.1459 30.1939C58.5841 31.0883 57.724 31.5561 56.5656 31.5973C55.5903 31.6321 54.7929 31.3613 54.1732 30.7847C53.8663 30.4989 53.6211 30.1529 53.4528 29.7682C53.2845 29.3835 53.1967 28.9683 53.1947 28.5481C53.1694 28.1318 53.228 27.7146 53.3672 27.3216C53.5063 26.9286 53.723 26.5678 54.0043 26.2609C54.2903 25.9494 54.6375 25.7007 55.024 25.5306C55.4105 25.3605 55.8279 25.2726 56.25 25.2724C56.6554 25.2462 57.0617 25.3088 57.4407 25.4556C57.8198 25.6025 58.1625 25.8302 58.4452 26.123C59.0274 26.7144 59.3583 27.5093 59.3684 28.3406C59.371 28.5221 59.3615 28.7037 59.34 28.8839L54.5693 29.0597ZM54.5203 28.0016L58.0443 27.8781C57.9724 27.4483 57.7427 27.0612 57.4004 26.7931C57.0762 26.5546 56.6797 26.4365 56.2784 26.4589C55.8443 26.4583 55.4243 26.614 55.0948 26.8976C54.7778 27.1847 54.5739 27.5764 54.5203 28.0016Z" fill="white"/>
<path d="M64.2259 25.1566L65.6462 25.106L63.5189 31.2043L62.0213 31.2566L59.4741 25.323L60.8945 25.2739L62.7314 29.7866L64.2259 25.1566Z" fill="white"/>
<path d="M67.3584 28.6118C67.448 29.0328 67.6977 29.4022 68.0544 29.6414C68.4344 29.8792 68.8797 29.9901 69.3264 29.9581C70.0134 29.9349 70.5199 29.6709 70.8461 29.1662L71.935 29.7538C71.3732 30.6482 70.5131 31.1161 69.3547 31.1573C68.3805 31.1921 67.583 30.9212 66.9622 30.3446C66.6553 30.059 66.4102 29.713 66.2422 29.3283C66.0741 28.9435 65.9867 28.5282 65.9854 28.1081C65.9598 27.6919 66.0181 27.2748 66.157 26.8818C66.2958 26.4887 66.5123 26.1278 66.7934 25.8208C67.0795 25.5093 67.4267 25.2608 67.8132 25.0906C68.1997 24.9205 68.6171 24.8326 69.0391 24.8324C69.4447 24.8064 69.8512 24.869 70.2305 25.0159C70.6097 25.1627 70.9527 25.3903 71.2359 25.683C71.8168 26.2752 72.1475 27.0696 72.1591 27.9006C72.161 28.0822 72.151 28.2636 72.1291 28.4438L67.3584 28.6118ZM67.3094 27.5537L70.8335 27.4301C70.7631 26.9998 70.533 26.6122 70.1896 26.3451C69.8658 26.107 69.4698 25.9889 69.0691 26.0109C68.6344 26.0101 68.214 26.1658 67.8839 26.4496C67.5669 26.7368 67.3631 27.1285 67.3094 27.5537Z" fill="white"/>
<path d="M76.3397 24.5755C76.6476 24.5515 76.957 24.5928 77.248 24.6968C77.5389 24.8008 77.8048 24.9651 78.0283 25.179C78.467 25.6014 78.7001 26.199 78.7274 26.972L78.8552 30.6659L77.5611 30.7119L77.4365 27.1495C77.4423 26.9613 77.4105 26.7739 77.3427 26.5984C77.2749 26.4229 77.1726 26.2629 77.0419 26.1278C76.9064 26.0089 76.7483 25.9187 76.5772 25.8626C76.4061 25.8065 76.2254 25.7858 76.0461 25.8015C75.8425 25.7999 75.6406 25.8403 75.4533 25.9205C75.2659 26.0006 75.0971 26.1186 74.9572 26.2672C74.6868 26.5618 74.5621 27.0021 74.5832 27.5882L74.6952 30.8116L73.4012 30.8576L73.1929 24.8384L74.4869 24.794L74.5137 25.5623C74.883 24.934 75.4917 24.605 76.3397 24.5755Z" fill="white"/>
<path d="M83.424 25.7367L81.9374 25.789L82.0385 28.675C82.0326 28.7714 82.046 28.8682 82.078 28.9593C82.11 29.0504 82.1599 29.1342 82.2247 29.2056C82.3677 29.3183 82.5467 29.3746 82.7281 29.364C83.0021 29.3668 83.2759 29.3557 83.5487 29.3308L83.5898 30.4966C82.604 30.6518 81.8896 30.5906 81.4467 30.3129C81.0037 30.0352 80.7696 29.5034 80.7444 28.7178L80.6434 25.8302L79.5387 25.8698L79.4961 24.6184L80.6008 24.5788L80.5566 23.28L81.838 22.8491L81.8964 24.5345L83.3814 24.4822L83.424 25.7367Z" fill="white"/>
<path d="M85.5607 26.0709C85.567 26.1737 85.6031 26.2723 85.6645 26.3547C85.7259 26.4371 85.8099 26.4998 85.9063 26.5351C86.1663 26.6557 86.439 26.747 86.7191 26.8075C87.0347 26.8803 87.3561 26.9675 87.6833 27.0689C88.0047 27.1686 88.2917 27.3568 88.5118 27.6122C88.7483 27.8928 88.8776 28.2489 88.8764 28.6165C88.896 28.8802 88.8498 29.1448 88.7421 29.3862C88.6343 29.6276 88.4684 29.8383 88.2593 29.9993C87.7822 30.3597 87.201 30.5538 86.6039 30.552C86.073 30.5861 85.5428 30.4767 85.0683 30.2352C84.649 30.0143 84.3127 29.6623 84.1104 29.2326L85.2024 28.5436C85.4297 29.1138 85.8831 29.3873 86.5628 29.3641C87.2414 29.3403 87.5728 29.1027 87.5586 28.6544C87.55 28.5529 87.5128 28.456 87.4513 28.3749C87.3898 28.2939 87.3066 28.232 87.2114 28.1966C86.9525 28.0716 86.6797 27.9781 86.3987 27.9179C86.083 27.845 85.7616 27.7579 85.4344 27.6566C85.1156 27.5579 84.8294 27.3745 84.6059 27.1259C84.3698 26.8539 84.2407 26.5046 84.2429 26.1438C84.2258 25.8874 84.2696 25.6306 84.3709 25.3946C84.4721 25.1585 84.6279 24.9501 84.8253 24.7864C85.2599 24.4243 85.8071 24.2265 86.3718 24.2272C86.8344 24.2031 87.2953 24.3007 87.7086 24.5107C88.0957 24.7113 88.4168 25.0199 88.6333 25.3994L87.5633 26.052C87.3392 25.6021 86.9557 25.3867 86.4128 25.4057C86.1937 25.405 85.9792 25.4688 85.7958 25.5894C85.7175 25.6414 85.6543 25.7134 85.613 25.7981C85.5716 25.8827 85.5535 25.9769 85.5607 26.0709Z" fill="white"/>
</g>
<defs>
<clipPath id="clip0_13_12980">
<rect width="110" height="39.4872" fill="white"/>
</clipPath>
</defs>
</svg>
