<svg width="97" height="20" viewBox="0 0 97 20" fill="none" xmlns="http://www.w3.org/2000/svg">
<path d="M27.5754 14.7538V5.25H30.6543V12.1205H37.3129V14.7569L27.5754 14.7538Z" fill="white"/>
<path d="M49.5561 5.25V10.6029C49.5561 11.7213 49.3414 12.6112 48.912 13.2725C48.4827 13.9338 47.8681 14.4021 47.0681 14.6776C46.2686 14.9526 45.2691 15.0901 44.0698 15.0901C42.8705 15.0901 41.8711 14.9526 41.0716 14.6776C40.272 14.4025 39.6574 13.9365 39.2276 13.2793C38.7979 12.6222 38.583 11.7301 38.583 10.6029V5.25H41.6619V10.5098C41.6619 11.1927 41.8688 11.6853 42.2827 11.9874C42.6967 12.2895 43.2932 12.4405 44.0723 12.4405C44.8444 12.4405 45.4393 12.2895 45.8569 11.9874C46.2746 11.6853 46.4828 11.1927 46.4816 10.5098V5.25H49.5561Z" fill="white"/>
<path d="M64.7238 14.7538H61.6449V8.28272H61.5731L59.137 14.7538H56.8152L54.3448 8.20272H54.2611V14.7538H51.3496V5.25H56.075L57.9489 10.5891H58.032L59.8697 5.25H64.7269L64.7238 14.7538Z" fill="white"/>
<path d="M66.5132 14.7538V5.25H69.592V14.7569L66.5132 14.7538Z" fill="white"/>
<path d="M81.9376 6.16684C82.9757 7.00024 83.4948 8.27845 83.4948 10.0015C83.4948 11.7245 82.9757 13.0028 81.9376 13.8362C80.8994 14.6695 79.3586 15.0862 77.3152 15.0862C75.2781 15.0862 73.7406 14.6695 72.7029 13.8362C71.6652 13.0028 71.1455 11.7245 71.1438 10.0015C71.1438 8.2797 71.6629 7.00149 72.701 6.16684C73.7392 5.3322 75.2766 4.9155 77.3134 4.91675C79.358 4.9155 80.8994 5.3322 81.9376 6.16684ZM79.4134 11.8591C79.8823 11.4283 80.117 10.8091 80.1174 10.0015C80.1178 9.19394 79.8831 8.57473 79.4134 8.14386C78.9445 7.71341 78.2445 7.49819 77.3134 7.49819C76.3822 7.49819 75.6841 7.71341 75.2189 8.14386C74.7534 8.57473 74.5206 9.19394 74.5206 10.0015C74.5206 10.8091 74.7534 11.4283 75.2189 11.8591C75.6845 12.2896 76.3826 12.5048 77.3134 12.5048C78.2441 12.5048 78.9441 12.2896 79.4134 11.8591Z" fill="white"/>
<path d="M91.6632 7.29878C91.3247 7.1321 90.8372 7.04876 90.2009 7.04876C89.5488 7.04876 89.0835 7.11752 88.8049 7.25503C88.5263 7.39254 88.387 7.59443 88.387 7.8607C88.3809 7.95402 88.4011 8.04719 88.4452 8.12962C88.4894 8.21204 88.5558 8.28042 88.6368 8.32698C88.8034 8.42449 89.0897 8.49554 89.4957 8.54012L92.9681 8.85952C94.0187 8.95703 94.8085 9.23663 95.3373 9.69833C95.8662 10.16 96.1306 10.857 96.1306 11.7891C96.1306 12.6679 95.9178 13.3469 95.4923 13.8261C95.0667 14.3053 94.442 14.636 93.6183 14.8181C92.7942 15.0002 91.7063 15.0912 90.3546 15.0912C89.057 15.0912 88.0068 14.9935 87.2039 14.7981C86.401 14.6026 85.7824 14.252 85.3481 13.7461C84.9146 13.2407 84.682 12.526 84.6504 11.6022H88.2346C88.322 12.1085 88.5427 12.4571 88.8967 12.6479C89.2507 12.8388 89.7778 12.9342 90.4783 12.9342C91.1941 12.9342 91.7092 12.8609 92.0236 12.7142C92.338 12.5675 92.495 12.3383 92.4946 12.0266C92.4946 11.7691 92.4032 11.5816 92.2204 11.4641C92.0376 11.3466 91.7632 11.2712 91.3971 11.2378L88.0553 10.8784C86.9972 10.7634 86.2018 10.4926 85.6692 10.0659C85.1366 9.63916 84.8701 8.95995 84.8696 8.02821C84.8696 7.23649 85.0824 6.6129 85.508 6.15745C85.9336 5.702 86.5422 5.3801 87.3338 5.19175C88.1251 5.00549 89.1174 4.91235 90.3109 4.91235C91.4964 4.91235 92.483 5.00778 93.2704 5.19863C94.0579 5.38948 94.6725 5.72013 95.1144 6.19058C95.5562 6.66103 95.7888 7.30462 95.8121 8.12134H92.2679C92.2437 7.94464 92.1757 7.77681 92.0701 7.63313C91.9644 7.48946 91.8246 7.37452 91.6632 7.29878Z" fill="white"/>
<path fill-rule="evenodd" clip-rule="evenodd" d="M12.4574 17.8755C12.0804 17.9239 11.696 17.9488 11.3058 17.9488C10.9128 17.9488 10.5256 17.9235 10.1459 17.8744C9.96617 18.8915 9.446 19.6441 8.70557 19.8999C8.08914 20.114 7.4998 19.9215 7.43512 19.9003L7.43379 19.8999C6.0457 19.4218 5.65089 17.3638 5.54845 15.8558C4.82457 15.2487 4.1979 14.5294 3.69518 13.7246C3.65563 13.8955 3.62448 14.0513 3.59599 14.1938C3.4788 14.78 3.40648 15.1417 2.97887 15.4089C2.34111 15.8077 1.53783 15.6077 1.49535 15.5965C0.673324 15.3789 0.312908 14.6545 0.223585 14.4714C-0.650911 12.7075 1.30921 10.5517 1.49535 10.3511C1.78003 10.0457 2.07393 9.79583 2.35796 9.58898C2.34424 9.3859 2.33726 9.18097 2.33726 8.97441C2.33726 4.01798 6.35263 0 11.3058 0C16.259 0 20.2744 4.01798 20.2744 8.97441C20.2744 9.1847 20.2672 9.39329 20.253 9.59996C20.5318 9.80459 20.8197 10.051 21.099 10.3511C21.2939 10.5517 23.2547 12.7075 22.3789 14.4714C22.2902 14.6533 21.9298 15.3777 21.1078 15.5965C21.0653 15.6077 20.262 15.8077 19.6243 15.4089C19.199 15.1423 19.1267 14.7815 19.0097 14.1974C18.9814 14.0562 18.9505 13.902 18.9113 13.7328C18.4073 14.5377 17.7793 15.2569 17.054 15.8635C16.9509 17.3709 16.5551 19.4226 15.1693 19.8999L15.168 19.9003C15.1033 19.9215 14.514 20.114 13.8976 19.8999C13.1574 19.6441 12.6373 18.8921 12.4574 17.8755Z" fill="white"/>
<path d="M11.3059 13.6933C14.605 13.6933 17.2794 11.5805 17.2794 8.97422C17.2794 6.36794 14.605 4.25513 11.3059 4.25513C8.00691 4.25513 5.33252 6.36794 5.33252 8.97422C5.33252 11.5805 8.00691 13.6933 11.3059 13.6933Z" fill="#0E0C15"/>
<path d="M8.74697 10.1705C9.46073 10.1705 10.0393 9.39585 10.0393 8.44033C10.0393 7.48481 9.46073 6.71021 8.74697 6.71021C8.03321 6.71021 7.45459 7.48481 7.45459 8.44033C7.45459 9.39585 8.03321 10.1705 8.74697 10.1705Z" fill="white"/>
<path d="M13.6464 10.1705C14.3601 10.1705 14.9388 9.39585 14.9388 8.44033C14.9388 7.48481 14.3601 6.71021 13.6464 6.71021C12.9326 6.71021 12.354 7.48481 12.354 8.44033C12.354 9.39585 12.9326 10.1705 13.6464 10.1705Z" fill="white"/>
</svg>
