<svg width="110" height="40" fill="none" xmlns="http://www.w3.org/2000/svg"><g clip-path="url(#a)"><path d="M11.315 13.135a5.45 5.45 0 0 1-2.907.804 5.322 5.322 0 0 1-3.91-1.596 5.387 5.387 0 0 1-1.59-3.95 5.403 5.403 0 0 1 1.59-3.95 5.337 5.337 0 0 1 3.91-1.596 5.46 5.46 0 0 1 2.999.852c.85.538 1.53 1.31 1.954 2.225h3.1A8.17 8.17 0 0 0 13.5 1.676 8.262 8.262 0 0 0 8.407 0c-2.34 0-4.35.816-5.969 2.427C.82 4.037-.002 6.043-.002 8.394c0 2.35.821 4.356 2.44 5.965 1.62 1.61 3.63 2.427 5.969 2.427a8.285 8.285 0 0 0 5.05-1.629 8.104 8.104 0 0 0 2.957-4.153h-3.121a5.378 5.378 0 0 1-1.978 2.13ZM27.761 6.496a5.816 5.816 0 0 0-4.247-1.763 5.8 5.8 0 0 0-4.248 1.763 5.979 5.979 0 0 0-1.315 1.95 6.018 6.018 0 0 0-.442 2.314 5.856 5.856 0 0 0 1.757 4.263 5.807 5.807 0 0 0 4.248 1.763 5.79 5.79 0 0 0 4.247-1.763 5.833 5.833 0 0 0 1.756-4.263 5.851 5.851 0 0 0-1.756-4.264Zm-2.022 6.53a2.931 2.931 0 0 1-2.201.913 3.01 3.01 0 0 1-2.227-.91 3.118 3.118 0 0 1-.895-2.269 3.126 3.126 0 0 1 .895-2.268 3.014 3.014 0 0 1 2.227-.913 2.924 2.924 0 0 1 2.201.913 3.17 3.17 0 0 1 .871 2.268 3.168 3.168 0 0 1-.87 2.267ZM47.532 6.178c-.955-.959-2.23-1.445-3.787-1.445-1.634 0-2.882.538-3.71 1.603l-.064.08-.061-.08c-.83-1.065-2.079-1.603-3.71-1.603-1.56 0-2.833.486-3.788 1.445-.955.958-1.44 2.396-1.44 4.276V16.6h2.908v-6.146c0-1.9.78-2.871 2.32-2.871 1.538 0 2.318.966 2.318 2.871V16.6h2.907v-6.146c0-1.9.789-2.871 2.32-2.871 1.53 0 2.318.966 2.318 2.871V16.6h2.907v-6.146c0-1.88-.483-3.318-1.438-4.276ZM60.771 6.496a5.815 5.815 0 0 0-4.246-1.763 5.753 5.753 0 0 0-4.236 1.763 5.862 5.862 0 0 0-1.741 4.264v10.57h2.93v-5.518l.125.09c.857.6 1.882.91 2.926.884a5.79 5.79 0 0 0 4.247-1.763 5.833 5.833 0 0 0 1.756-4.263 5.853 5.853 0 0 0-1.76-4.264Zm-2.017 6.53a2.937 2.937 0 0 1-2.209.913 3.008 3.008 0 0 1-2.225-.91 3.12 3.12 0 0 1-.895-2.269 3.127 3.127 0 0 1 .895-2.268 3.012 3.012 0 0 1 2.225-.912 2.927 2.927 0 0 1 2.21.912 3.17 3.17 0 0 1 .87 2.268 3.168 3.168 0 0 1-.87 2.267ZM75.85 10.502c-.061-1.752-.706-3.168-1.917-4.203a6.25 6.25 0 0 0-4.158-1.566 5.598 5.598 0 0 0-4.2 1.787 5.966 5.966 0 0 0-1.71 4.264 5.827 5.827 0 0 0 1.745 4.25 5.82 5.82 0 0 0 4.26 1.751 5.806 5.806 0 0 0 3.306-1.004 6.147 6.147 0 0 0 2.16-2.506l-3.505-.022a3.22 3.22 0 0 1-2.052.686c-.64.02-1.27-.164-1.802-.523a2.395 2.395 0 0 1-.963-1.425l-.023-.097h8.78c.07-.46.096-.927.08-1.392Zm-8.883-.918.047-.11c.53-1.256 1.49-1.901 2.855-1.901.608 0 1.202.181 1.706.523.51.333.91.81 1.15 1.371l.047.111-5.805.007ZM83.278 7.77V4.917h-2.123V.21h-2.907v4.71h-1.746v2.85h1.746v3.327c0 1.878.464 3.293 1.38 4.204.915.91 2.126 1.357 3.65 1.371v-2.85c-.736-.015-1.277-.232-1.61-.646-.333-.413-.513-1.124-.513-2.084V7.765l2.123.004ZM96.245 10.502c-.062-1.752-.707-3.168-1.918-4.203a6.242 6.242 0 0 0-4.156-1.566 5.598 5.598 0 0 0-4.2 1.787 5.966 5.966 0 0 0-1.71 4.264 5.825 5.825 0 0 0 1.745 4.25 5.82 5.82 0 0 0 4.26 1.751 5.8 5.8 0 0 0 3.304-1.004 6.15 6.15 0 0 0 2.162-2.506l-3.505-.022a3.22 3.22 0 0 1-2.052.686c-.64.02-1.27-.164-1.802-.523a2.389 2.389 0 0 1-.963-1.425l-.023-.097h8.77c.073-.46.102-.927.088-1.392Zm-8.882-.918.047-.11c.53-1.256 1.49-1.901 2.855-1.901a3.03 3.03 0 0 1 1.705.523c.51.332.91.81 1.15 1.371l.046.111-5.803.007Z" fill="#fff"/><path d="m104.581 8.18.026-.043L109.67.188h-3.256l-3.437 5.321L99.562.19h-3.248l5.09 7.99-.027.043-5.415 8.375h3.255l3.768-5.816 3.767 5.816h3.256l-5.427-8.417Z" fill="#fff"/><path d="m91.101 17.935-72.866 2.553a2.214 2.214 0 0 0-2.13 2.294l.506 14.564a2.213 2.213 0 0 0 2.285 2.139l72.866-2.554a2.214 2.214 0 0 0 2.131-2.294l-.507-14.564a2.213 2.213 0 0 0-2.285-2.138Z" fill="#2CA656"/><path d="M22.57 28.279a.53.53 0 0 0 .348.462c.26.122.532.213.812.273.316.075.637.162.965.263.321.099.608.287.828.541.236.282.366.638.365 1.006a1.604 1.604 0 0 1-.619 1.383 2.733 2.733 0 0 1-1.654.551 2.968 2.968 0 0 1-1.535-.316 2.197 2.197 0 0 1-.96-1.003l1.092-.69c.23.571.684.844 1.362.82.679-.024 1.01-.26.994-.708a.534.534 0 0 0-.345-.458 3.622 3.622 0 0 0-.815-.279c-.315-.074-.639-.158-.962-.261a1.838 1.838 0 0 1-.829-.532 1.486 1.486 0 0 1-.364-.98 1.632 1.632 0 0 1 .584-1.358 2.42 2.42 0 0 1 1.546-.561c.463-.025.923.074 1.335.285.388.2.71.509.927.889l-1.07.652c-.224-.45-.608-.665-1.15-.646-.22 0-.435.063-.62.184a.531.531 0 0 0-.235.483ZM30.264 26.19a2.804 2.804 0 0 1 2.135.853 3.125 3.125 0 0 1 .947 2.218 3.13 3.13 0 0 1-.789 2.28 2.824 2.824 0 0 1-2.078.988c-.91.031-1.621-.28-2.132-.937l.113 3.26-1.295.046-.294-8.422 1.296-.046.03.867c.467-.706 1.156-1.075 2.067-1.108Zm-1.401 4.593a1.83 1.83 0 0 0 1.374.5 1.827 1.827 0 0 0 1.335-.595 1.882 1.882 0 0 0 .491-1.397 1.882 1.882 0 0 0-.587-1.358 1.825 1.825 0 0 0-1.373-.5 1.814 1.814 0 0 0-1.335.596 1.882 1.882 0 0 0-.492 1.395 1.883 1.883 0 0 0 .587 1.362v-.003ZM37.471 32.27a3.065 3.065 0 0 1-2.272-.836 3.04 3.04 0 0 1-1.002-2.218 3.052 3.052 0 0 1 .844-2.282 3.08 3.08 0 0 1 2.21-.993 3.067 3.067 0 0 1 2.28.836 3.042 3.042 0 0 1 .994 2.218 3.06 3.06 0 0 1-.838 2.282 3.075 3.075 0 0 1-2.216.993Zm-1.393-1.758a1.806 1.806 0 0 0 1.35.494 1.804 1.804 0 0 0 1.31-.587 1.848 1.848 0 0 0 .493-1.378 1.853 1.853 0 0 0-.587-1.342 1.802 1.802 0 0 0-1.353-.497 1.803 1.803 0 0 0-1.311.587 1.85 1.85 0 0 0-.492 1.38 1.848 1.848 0 0 0 .59 1.346v-.003ZM42.926 26.915c.3-.759.903-1.154 1.807-1.184l.049 1.408a1.914 1.914 0 0 0-1.282.4c-.359.282-.527.732-.505 1.348l.104 3.032-1.294.046-.21-6.02 1.296-.043.035 1.013ZM49.238 26.934l-1.485.052.1 2.888a.726.726 0 0 0 .186.529.753.753 0 0 0 .503.158c.275.003.549-.008.822-.035l.04 1.168c-.986.155-1.7.094-2.142-.184-.442-.279-.677-.81-.704-1.597l-.1-2.886-1.105.038-.043-1.25 1.105-.039-.046-1.3 1.282-.43.058 1.684 1.486-.052.043 1.256ZM54.57 29.06c.089.42.339.79.695 1.03.38.237.825.348 1.272.316.687-.024 1.194-.29 1.52-.8l1.089.588c-.562.894-1.422 1.362-2.58 1.403-.976.035-1.773-.236-2.393-.812a3.07 3.07 0 0 1-.978-2.237 3.109 3.109 0 0 1 .81-2.287 3.055 3.055 0 0 1 2.245-.989 2.797 2.797 0 0 1 2.195.851c.582.591.913 1.386.923 2.218.003.181-.007.363-.028.543l-4.77.176Zm-.05-1.058 3.524-.124a1.743 1.743 0 0 0-.644-1.085 1.73 1.73 0 0 0-1.122-.334 1.81 1.81 0 0 0-1.183.439c-.317.287-.521.678-.575 1.104ZM64.226 25.157l1.42-.051-2.127 6.098-1.498.053-2.547-5.934 1.42-.05 1.837 4.514 1.495-4.63ZM67.358 28.612c.09.42.34.79.696 1.03.38.237.826.348 1.272.316.687-.023 1.194-.287 1.52-.792l1.089.588c-.562.894-1.422 1.362-2.58 1.403-.975.035-1.772-.236-2.393-.812a3.063 3.063 0 0 1-.977-2.237 3.108 3.108 0 0 1 .808-2.287 3.058 3.058 0 0 1 2.246-.989 2.802 2.802 0 0 1 2.197.851c.58.592.911 1.387.923 2.218.002.181-.008.363-.03.543l-4.77.168Zm-.049-1.058 3.525-.124c-.07-.43-.301-.818-.644-1.085a1.731 1.731 0 0 0-1.12-.334c-.436 0-.856.155-1.186.439-.317.287-.52.678-.575 1.104ZM76.34 24.576a2.192 2.192 0 0 1 1.688.603c.439.422.672 1.02.7 1.793l.127 3.694-1.294.046-.125-3.563a1.409 1.409 0 0 0-.394-1.021 1.335 1.335 0 0 0-.996-.326 1.477 1.477 0 0 0-1.089.465c-.27.295-.395.735-.374 1.321l.112 3.224-1.294.046-.208-6.02 1.294-.044.027.768c.369-.628.978-.957 1.826-.986ZM83.424 25.737l-1.487.052.102 2.886a.725.725 0 0 0 .186.53.743.743 0 0 0 .503.159c.274.003.548-.008.82-.033l.042 1.166c-.986.155-1.7.094-2.143-.184-.443-.278-.677-.81-.703-1.595l-.1-2.888-1.105.04-.043-1.252 1.105-.04-.044-1.298 1.281-.43.058 1.684 1.485-.052.043 1.255ZM85.56 26.07a.53.53 0 0 0 .346.465c.26.12.533.212.813.273.316.072.637.16.964.26.322.1.609.289.829.544.236.28.366.637.364 1.005a1.599 1.599 0 0 1-.617 1.382 2.732 2.732 0 0 1-1.655.553 2.966 2.966 0 0 1-1.536-.317 2.185 2.185 0 0 1-.958-1.002l1.092-.69c.228.57.681.844 1.36.821.68-.024 1.01-.261.997-.71a.538.538 0 0 0-.348-.457 3.607 3.607 0 0 0-.812-.28c-.316-.072-.637-.16-.965-.26a1.85 1.85 0 0 1-.828-.531 1.485 1.485 0 0 1-.363-.982 1.625 1.625 0 0 1 .582-1.358c.435-.362.982-.56 1.547-.559.462-.024.923.074 1.337.284.387.2.708.509.924.888l-1.07.653c-.224-.45-.607-.665-1.15-.646-.22-.001-.434.063-.617.183a.529.529 0 0 0-.235.482Z" fill="#fff"/></g><defs><clipPath id="a"><path fill="#fff" d="M0 0h110v39.487H0z"/></clipPath></defs></svg>