<svg width="97" height="20" fill="none" xmlns="http://www.w3.org/2000/svg"><path d="M27.575 14.754V5.25h3.08v6.87h6.658v2.637l-9.738-.003ZM49.556 5.25v5.353c0 1.118-.215 2.008-.644 2.67-.43.66-1.044 1.13-1.844 1.405-.8.275-1.799.412-2.998.412-1.2 0-2.199-.137-2.998-.412-.8-.276-1.415-.742-1.844-1.399-.43-.657-.645-1.549-.645-2.676V5.25h3.079v5.26c0 .683.207 1.175.62 1.477.415.303 1.011.454 1.79.454.772 0 1.367-.152 1.785-.454.418-.302.626-.794.625-1.477V5.25h3.074ZM64.724 14.754h-3.08V8.283h-.07l-2.437 6.47h-2.322l-2.47-6.55h-.084v6.55H51.35V5.25h4.725l1.874 5.34h.083l1.838-5.34h4.857l-.003 9.504ZM66.513 14.754V5.25h3.079v9.507l-3.079-.003ZM81.938 6.167c1.038.833 1.557 2.111 1.557 3.835 0 1.723-.52 3-1.557 3.834-1.039.833-2.58 1.25-4.623 1.25-2.037 0-3.574-.417-4.612-1.25-1.038-.833-1.558-2.111-1.56-3.835 0-1.721.52-3 1.558-3.834 1.038-.835 2.576-1.252 4.612-1.25 2.045-.002 3.586.415 4.625 1.25Zm-2.525 5.692c.47-.43.704-1.05.704-1.857 0-.808-.234-1.427-.704-1.858-.468-.43-1.168-.646-2.1-.646-.93 0-1.629.215-2.094.646-.466.43-.698 1.05-.698 1.857 0 .808.232 1.427.698 1.858.466.43 1.164.646 2.094.646.931 0 1.631-.215 2.1-.646ZM91.663 7.299c-.338-.167-.826-.25-1.462-.25-.652 0-1.117.069-1.396.206-.279.138-.418.34-.418.606a.5.5 0 0 0 .25.466c.166.097.453.169.859.213l3.472.32c1.05.097 1.84.377 2.37.838.528.462.793 1.159.793 2.091 0 .879-.213 1.558-.639 2.037-.425.48-1.05.81-1.874.992-.824.182-1.912.273-3.263.273-1.298 0-2.348-.098-3.151-.293-.803-.195-1.422-.546-1.856-1.052-.433-.505-.666-1.22-.698-2.144h3.585c.087.506.308.855.662 1.046.354.19.88.286 1.581.286.716 0 1.231-.073 1.546-.22.314-.146.471-.376.47-.687 0-.258-.09-.445-.274-.563-.182-.117-.457-.193-.823-.226l-3.342-.36c-1.058-.115-1.853-.385-2.386-.812-.532-.427-.799-1.106-.8-2.038 0-.792.213-1.415.639-1.87.426-.456 1.034-.778 1.826-.966.791-.187 1.783-.28 2.977-.28 1.185 0 2.172.096 2.96.287.787.19 1.401.521 1.843.992.442.47.675 1.114.698 1.93h-3.544a1.07 1.07 0 0 0-.605-.822Z" fill="#fff"/><path fill-rule="evenodd" clip-rule="evenodd" d="M12.457 17.875a9.041 9.041 0 0 1-2.311 0c-.18 1.017-.7 1.77-1.44 2.025-.617.214-1.206.022-1.27 0h-.002c-1.388-.478-1.783-2.536-1.886-4.044a9.02 9.02 0 0 1-1.853-2.131c-.04.17-.07.326-.099.469-.117.586-.19.948-.617 1.215-.638.399-1.441.199-1.484.188-.822-.218-1.182-.942-1.271-1.126-.875-1.764 1.085-3.92 1.271-4.12.285-.305.579-.555.863-.762a9.117 9.117 0 0 1-.02-.615C2.337 4.018 6.352 0 11.305 0s8.968 4.018 8.968 8.974c0 .21-.007.42-.021.626.279.205.567.451.846.751.195.2 2.156 2.356 1.28 4.12-.089.182-.45.907-1.271 1.126-.043.01-.846.21-1.484-.188-.425-.267-.497-.628-.614-1.212-.029-.14-.06-.295-.099-.464a9.019 9.019 0 0 1-1.857 2.13c-.103 1.508-.499 3.56-1.885 4.037h-.001c-.065.022-.654.214-1.27 0-.74-.256-1.26-1.008-1.44-2.024Z" fill="#fff"/><path d="M11.306 13.693c3.299 0 5.973-2.112 5.973-4.719 0-2.606-2.674-4.719-5.973-4.719-3.3 0-5.973 2.113-5.973 4.72 0 2.606 2.674 4.718 5.973 4.718Z" fill="#0E0C15"/><path d="M8.747 10.17c.714 0 1.292-.774 1.292-1.73 0-.955-.578-1.73-1.292-1.73-.714 0-1.292.775-1.292 1.73 0 .956.578 1.73 1.292 1.73ZM13.646 10.17c.714 0 1.293-.774 1.293-1.73 0-.955-.579-1.73-1.293-1.73-.713 0-1.292.775-1.292 1.73 0 .956.579 1.73 1.292 1.73Z" fill="#fff"/></svg>