<svg width="20" height="20" fill="none" xmlns="http://www.w3.org/2000/svg"><g clip-path="url(#a)"><path d="M8.611 1.838V5.25a.829.829 0 0 1-.82.838c-1.614 0-2.492 1.693-2.614 5.034h2.615a.83.83 0 0 1 .82.838v7.203a.829.829 0 0 1-.82.837H.82a.83.83 0 0 1-.82-.837v-7.203c0-1.602.158-3.072.469-4.37.319-1.33.808-2.494 1.455-3.458.665-.99 1.497-1.768 2.472-2.31C5.38 1.277 6.521 1 7.792 1a.83.83 0 0 1 .82.838Zm10.57 4.25c.452 0 .819-.376.819-.838V1.838a.829.829 0 0 0-.82-.837c-1.27 0-2.412.276-3.394.821-.976.541-1.808 1.318-2.473 2.31-.647.964-1.137 2.127-1.456 3.459-.31 1.298-.468 2.768-.468 4.369v7.203c0 .462.367.837.82.837h6.972c.452 0 .819-.375.819-.837V11.96a.829.829 0 0 0-.82-.838h-2.578c.12-3.342.986-5.035 2.579-5.035Z" fill="#2CA656"/></g><defs><clipPath id="a"><path fill="#fff" transform="rotate(-180 10 10)" d="M0 0h20v20H0z"/></clipPath></defs></svg>